<?xml version="1.0" standalone="no"?>
<!DOCTYPE svg PUBLIC "-//W3C//DTD SVG 20010904//EN"
 "http://www.w3.org/TR/2001/REC-SVG-20010904/DTD/svg10.dtd">
<svg version="1.0" xmlns="http://www.w3.org/2000/svg"
 width="208.000000pt" height="91.000000pt" viewBox="0 0 208.000000 91.000000"
 preserveAspectRatio="xMidYMid meet">

<g transform="translate(0.000000,91.000000) scale(0.100000,-0.100000)"
fill="#000000" stroke="none">
<path d="M1587 904 c-15 -15 -6 -83 26 -201 l34 -122 -31 -6 c-177 -37 -428
-103 -614 -162 -62 -20 -115 -34 -117 -31 -11 10 21 78 82 172 53 83 63 107
63 143 0 90 -47 133 -145 133 -71 0 -126 -27 -161 -80 -22 -33 -26 -50 -25
-102 1 -82 6 -122 16 -139 7 -11 36 -182 31 -185 0 0 -44 -17 -96 -36 -52 -20
-119 -46 -148 -57 -51 -20 -52 -20 -42 -2 26 50 -2 106 -69 141 -21 10 -89 38
-152 61 -63 22 -131 51 -152 62 -73 41 -55 93 46 138 69 30 224 39 280 16 34
-15 37 -20 37 -54 0 -21 -7 -49 -16 -61 -9 -13 -13 -26 -10 -29 10 -10 35 28
46 70 25 87 -16 112 -185 112 -106 0 -125 -3 -168 -24 -70 -35 -107 -73 -107
-111 0 -66 22 -82 223 -156 145 -53 197 -84 197 -118 0 -51 -103 -104 -209
-109 -58 -2 -83 17 -37 29 14 3 26 13 26 21 0 12 -7 14 -32 9 -41 -8 -58 -23
-58 -51 0 -39 33 -58 90 -53 l51 5 -57 -32 c-70 -38 -87 -60 -61 -79 20 -16
67 -9 197 29 223 64 319 74 890 86 499 10 813 28 833 48 17 17 -2 28 -67 40
-134 25 -221 118 -286 307 l-18 53 51 11 c204 42 336 74 332 80 -3 4 -89 -12
-192 -35 -104 -24 -191 -40 -194 -37 -4 4 -21 69 -40 145 -32 136 -47 175 -62
161z m-620 -137 c37 -36 34 -84 -7 -149 -81 -128 -101 -165 -111 -203 -19 -69
-19 -69 -30 -58 -15 15 -76 193 -84 246 -9 61 -1 105 28 140 47 59 157 72 204
24z m707 -267 c12 -36 31 -82 41 -103 22 -46 16 -117 -12 -155 -30 -40 -93
-55 -178 -42 -90 14 -115 30 -115 74 0 26 8 41 31 60 38 32 84 34 140 5 53
-27 60 -18 14 16 -95 73 -225 23 -225 -86 0 -40 15 -65 48 -83 26 -15 24 -15
-43 -14 -38 0 -62 2 -52 5 9 2 17 12 17 20 0 13 -11 15 -72 10 -40 -3 -100 -2
-132 1 -63 7 -72 18 -61 69 4 19 9 21 37 12 49 -13 106 -11 143 6 91 44 134
158 64 172 -16 3 -27 8 -24 11 6 7 337 91 348 88 4 -1 18 -31 31 -66z m-354
-84 c0 -27 -56 -82 -93 -91 -13 -4 -46 -4 -73 -2 -39 3 -44 5 -26 11 12 5 21
15 20 24 -2 8 16 30 40 49 34 26 53 33 88 33 40 0 44 -2 44 -24z m-217 -33
c-48 -47 -83 -105 -83 -137 0 -12 -11 -16 -48 -16 -62 0 -92 21 -92 65 0 32 1
33 93 69 85 33 168 64 175 65 2 1 -18 -20 -45 -46z m749 -154 l39 -28 -43 -5
c-24 -3 -69 -7 -100 -10 l-57 -5 21 29 c12 17 23 50 26 80 l5 51 35 -42 c20
-23 53 -54 74 -70z m-1087 12 c13 -77 75 -96 75 -24 1 32 3 35 13 22 27 -36
65 -50 124 -48 35 1 72 -5 93 -15 l35 -15 -55 -1 c-151 -1 -479 -38 -669 -75
-73 -14 -135 -25 -136 -23 -8 8 476 215 507 218 3 0 9 -18 13 -39z"/>
</g>
</svg>
